# xmcd
#
# Track frame offsets:
#	183
#	19525
#	35215
#	58283
#	77465
#	95958
#	126503
#	149358
#	172010
#	190365
#	207953
#	225818
#	249295
#	268388
#	290130
#	309698
#	326850
#
# Disc length: 4507
#
# Revision: 1
# Processed by: cddbd v1.5.1PL0 Copyright (c) Steve Scherf et al.
# Submitted via: dBpowerAMP V4.0
# Normalized: r0:TDELIM( - )
#
DISCID=0c119911
DTITLE=Downtown Blues - Vol 2
DYEAR=1900
DGENRE=
TTITLE0=Ben Harper - Like a King
TTITLE1=Johnny Winter - Johnny Guitar
TTITLE2=Lucky Peterson - Compare to What
TTITLE3=John Mayall - Wake up Call
TTITLE4=Taj Mahal - Blue Light Boogie
TTITLE5=Joe Louis Walker - Help Yourself
TTITLE6=Robert Cray - 1040 Blues
TTITLE7=Gary Moore - Jumpin' at Shadows (Live)
TTITLE8=B.b. King - Something You Got
TTITLE9=Marva Wright - What's Wrong
TTITLE10=Buddy Guy - Let me Love Your Baby
TTITLE11=Albert King - Stop
TTITLE12=Albert Collins - if You Love me Like You Say
TTITLE13=Johnny Copeland - Bye Bye Baby
TTITLE14=Terry Evans - Natcha Bone Lover
TTITLE15=John Lee Hooker - Red House
TTITLE16=John Hammond - That Nasty Swing
EXTD=
EXTT0=
EXTT1=
EXTT2=
EXTT3=
EXTT4=
EXTT5=
EXTT6=
EXTT7=
EXTT8=
EXTT9=
EXTT10=
EXTT11=
EXTT12=
EXTT13=
EXTT14=
EXTT15=
EXTT16=
PLAYORDER=
